<?xml version="1.0" standalone="no"?>
<!DOCTYPE svg PUBLIC "-//W3C//DTD SVG 20010904//EN"
 "http://www.w3.org/TR/2001/REC-SVG-20010904/DTD/svg10.dtd">
<svg version="1.0" xmlns="http://www.w3.org/2000/svg"
 width="562.000000pt" height="562.000000pt" viewBox="0 0 562.000000 562.000000"
 preserveAspectRatio="xMidYMid meet">

<g transform="translate(0.000000,562.000000) scale(0.100000,-0.100000)"
fill="#000000" stroke="none">
<path d="M1844 4611 c9 -14 -4 -39 -21 -43 -14 -3 -15 -35 -14 -258 1 -140 5
-257 7 -260 3 -3 201 -6 440 -8 l434 -3 0 291 0 290 -426 0 c-253 0 -423 -4
-420 -9z"/>
<path d="M2776 4583 c-3 -21 -6 -152 -6 -290 l0 -253 425 0 425 0 0 290 0 290
-419 0 -418 0 -7 -37z"/>
<path d="M1857 3961 c-2 -11 -15 -21 -27 -23 l-22 -3 0 -215 c0 -187 2 -215
16 -218 9 -2 16 -14 16 -28 l0 -24 425 0 425 0 -2 248 -3 247 -395 5 c-309 4
-394 8 -392 18 4 20 -35 14 -41 -7z"/>
<path d="M2780 3954 c-11 -27 -14 -462 -4 -488 5 -14 52 -16 425 -16 l419 0 0
244 c0 155 -4 247 -10 251 -6 4 -7 11 -4 17 4 6 -1 6 -14 -1 -32 -17 -768 -11
-764 7 4 24 -38 12 -48 -14z"/>
<path d="M2137 3963 c79 -2 207 -2 285 0 79 1 15 3 -142 3 -157 0 -221 -2
-143 -3z"/>
<path d="M3018 3963 c78 -2 206 -2 285 0 78 1 14 3 -143 3 -157 0 -221 -2
-142 -3z"/>
<path d="M1847 3393 c-4 -3 -7 -15 -7 -25 0 -10 -6 -18 -14 -18 -8 0 -15 -6
-17 -12 -9 -30 7 -488 16 -487 6 0 12 -9 15 -21 l5 -21 880 1 c484 0 883 0
888 0 4 0 7 133 7 295 l0 295 -883 0 c-486 0 -887 -3 -890 -7z"/>
<path d="M1560 2586 c0 -10 -9 -16 -25 -16 -23 0 -25 -3 -25 -50 l0 -50 50 0
51 0 -3 63 c-3 56 -5 62 -25 65 -16 2 -23 -2 -23 -12z"/>
<path d="M2234 2578 c3 -13 6 -31 6 -40 0 -11 8 -18 20 -18 17 0 20 -7 20 -44
0 -35 -4 -45 -20 -49 -16 -4 -20 -14 -20 -44 0 -85 -13 -173 -25 -173 -15 0
-22 -34 -31 -152 -5 -64 -10 -88 -20 -88 -10 0 -14 -14 -14 -50 l0 -50 45 0
45 0 0 49 c0 39 4 50 18 53 21 6 32 51 32 136 0 46 2 52 20 52 23 0 28 9 33
60 3 32 7 36 45 44 31 7 42 14 42 27 0 14 7 19 30 19 26 0 30 -4 31 -27 2 -42
-2 -161 -6 -181 -2 -9 -4 -32 -4 -49 -1 -21 -6 -33 -15 -33 -29 0 -35 -86 -7
-95 11 -3 21 -16 23 -28 2 -15 12 -23 33 -27 22 -4 29 -10 27 -24 -3 -14 1
-17 13 -12 9 3 19 6 21 6 2 0 4 6 4 14 0 9 12 16 28 18 19 2 28 9 30 24 3 19
-3 23 -42 28 l-46 7 0 45 c0 31 4 44 14 44 15 0 24 57 27 170 1 36 7 75 13 88
7 17 7 25 -1 30 -6 4 -13 18 -14 32 -4 22 -10 25 -49 28 -25 2 -68 1 -97 -3
-43 -5 -52 -10 -55 -28 -2 -14 -11 -23 -25 -25 -21 -3 -23 1 -23 41 0 63 10
107 25 107 15 0 29 77 19 114 -6 25 -9 26 -81 26 -73 0 -75 -1 -69 -22z"/>
<path d="M3810 2585 c0 -8 9 -15 20 -15 14 0 20 -7 20 -23 0 -13 3 -27 7 -30
7 -8 5 -102 -5 -192 -5 -43 -11 -60 -22 -60 -17 0 -17 2 -25 -136 -6 -91 -9
-106 -23 -105 -14 1 -18 -10 -20 -51 -3 -48 -1 -53 17 -53 16 0 21 -6 21 -25
0 -26 0 -26 78 -23 70 3 77 5 80 24 3 19 -3 23 -47 29 l-51 7 0 45 c0 35 4 46
19 50 20 5 31 70 31 180 0 45 3 56 19 60 22 6 31 56 31 169 0 67 2 74 20 74
17 0 20 7 20 44 l0 44 -95 1 c-80 2 -95 -1 -95 -14z"/>
<path d="M570 2540 c0 -12 10 -24 23 -29 21 -8 24 -16 26 -76 3 -107 -8 -175
-29 -175 -15 0 -18 -13 -22 -110 -4 -86 -8 -113 -21 -123 -10 -7 -17 -30 -19
-57 l-3 -45 -45 -5 c-56 -6 -68 -34 -19 -44 51 -10 199 -7 201 4 4 29 1 35
-22 40 -18 4 -25 12 -24 28 0 12 1 65 2 117 2 85 4 95 21 95 22 0 31 40 31
143 0 59 2 67 19 67 25 0 31 -19 31 -97 0 -58 2 -65 22 -71 21 -5 21 -6 2 -13
-14 -6 -15 -8 -3 -8 20 -1 29 -64 29 -202 l0 -96 31 -7 c57 -11 69 -8 69 18 0
18 6 25 23 28 19 3 22 10 25 50 3 39 6 47 25 50 16 2 23 11 25 31 2 19 9 27
23 27 14 0 20 10 25 41 5 28 13 43 25 46 12 4 20 19 25 48 4 31 12 45 25 48
15 4 19 14 19 51 0 42 2 46 24 46 27 0 28 -4 19 -102 -4 -45 -9 -58 -21 -59
-11 0 -12 -2 -4 -6 16 -6 16 -24 0 -21 -9 2 -14 -11 -15 -37 -8 -124 -15 -165
-29 -165 -8 0 -14 -10 -14 -25 0 -20 -5 -25 -25 -25 -20 0 -25 -5 -25 -25 l0
-25 115 0 115 0 0 25 c0 18 -5 25 -19 25 -11 0 -22 4 -26 9 -3 6 -2 60 1 122
6 94 10 112 24 116 22 6 30 50 30 159 0 73 2 82 20 87 12 3 20 14 20 26 0 11
9 26 20 33 11 7 20 19 20 26 0 7 14 15 30 19 21 4 30 11 30 25 0 17 -8 18
-117 16 l-118 -3 -9 -42 c-6 -31 -14 -43 -26 -43 -13 0 -19 -12 -24 -50 -4
-33 -11 -50 -21 -50 -8 0 -15 -12 -17 -27 -2 -20 -9 -29 -25 -31 -19 -3 -22
-11 -25 -50 -2 -39 -6 -47 -23 -47 -16 0 -22 -10 -28 -48 -7 -36 -13 -47 -28
-47 -14 0 -19 -7 -19 -25 0 -20 -5 -25 -24 -25 -19 0 -24 6 -30 38 -3 20 -6
54 -6 75 0 25 -5 37 -14 37 -18 0 -26 44 -26 144 0 116 -8 156 -31 156 -12 0
-19 7 -19 20 0 19 -7 20 -100 20 -94 0 -100 -1 -100 -20z"/>
<path d="M2983 2390 c-4 -15 -14 -20 -40 -20 -41 0 -73 -15 -73 -35 0 -7 -10
-15 -22 -17 -15 -2 -24 -11 -26 -25 -2 -15 -10 -23 -23 -23 -14 0 -19 -7 -19
-26 0 -17 -6 -28 -19 -31 -20 -5 -22 -12 -37 -122 -3 -25 -2 -82 1 -127 l7
-83 52 -8 c33 -5 51 -13 51 -22 0 -23 26 -25 32 -3 3 15 16 21 53 26 40 5 49
10 52 29 2 16 10 22 28 22 20 0 26 -6 28 -27 3 -22 9 -28 26 -28 15 0 26 -7
28 -18 3 -10 13 -19 22 -19 9 0 16 8 16 19 0 12 7 18 24 18 37 0 76 18 76 35
0 11 -11 15 -45 15 l-45 0 0 89 c0 105 8 151 26 151 15 0 27 82 22 155 l-3 50
-77 3 c-70 3 -78 5 -78 22 0 26 -30 26 -37 0z m92 -80 c3 -6 3 -42 -1 -80 -6
-59 -9 -70 -25 -70 -15 0 -19 -7 -19 -32 0 -69 -12 -108 -31 -108 -14 0 -19
-7 -19 -25 0 -20 -5 -25 -25 -25 -20 0 -25 -5 -25 -25 0 -27 -12 -30 -69 -19
l-31 7 0 114 c0 105 2 115 19 120 14 3 22 18 28 51 6 37 12 47 28 47 13 0 21
8 23 22 2 13 12 23 25 26 44 9 116 7 122 -3z"/>
<path d="M4847 2391 c-3 -13 -18 -20 -51 -25 -36 -6 -46 -11 -46 -27 0 -14 -7
-19 -25 -19 -18 0 -26 -7 -31 -24 -3 -13 -14 -26 -24 -29 -13 -3 -20 -18 -25
-51 -6 -36 -11 -46 -26 -46 -18 0 -19 -9 -19 -115 0 -114 0 -116 25 -125 15
-6 25 -17 25 -29 0 -17 9 -21 49 -27 37 -5 51 -11 54 -25 7 -27 77 -27 77 0 0
15 10 20 49 25 44 6 49 9 55 37 10 51 8 59 -19 59 -18 0 -25 -5 -25 -19 0 -19
-39 -31 -107 -31 -26 0 -34 5 -39 24 -3 13 -14 26 -25 29 -16 4 -19 14 -19 65
0 75 9 124 22 116 16 -10 28 17 28 63 0 35 3 42 23 45 14 2 23 11 25 25 4 26
43 37 95 28 32 -6 36 -10 42 -51 5 -38 9 -44 31 -44 17 0 24 5 24 20 0 13 7
20 20 20 16 0 20 7 20 30 0 23 -5 30 -19 30 -13 0 -21 8 -23 23 -3 19 -11 23
-53 27 -40 4 -50 9 -49 23 2 23 -32 22 -39 -2z"/>
<path d="M3531 2388 c-1 -12 -9 -18 -25 -18 -52 0 -86 -12 -86 -31 0 -13 -7
-19 -24 -19 -18 0 -25 -7 -29 -30 -5 -21 -12 -30 -26 -30 -15 0 -20 -10 -26
-50 -6 -40 -11 -50 -26 -50 -17 0 -19 -8 -19 -95 0 -86 2 -95 19 -95 15 0 20
-10 25 -45 l7 -44 50 -7 c32 -4 49 -11 49 -20 0 -8 1 -14 3 -15 1 0 21 -2 45
-5 38 -5 42 -4 42 15 0 17 6 21 35 21 19 0 37 -1 38 -2 2 -2 11 3 20 11 11 8
17 28 17 52 0 35 -3 39 -25 39 -18 0 -25 -5 -25 -20 0 -22 -42 -33 -105 -28
-32 2 -40 7 -45 28 -4 16 -14 26 -28 28 -19 3 -22 10 -22 46 0 42 1 44 38 50
20 3 54 6 75 6 25 0 37 4 37 14 0 11 14 16 48 18 40 3 47 6 50 25 2 14 11 23
25 25 16 2 23 11 25 31 2 19 9 27 23 27 16 0 19 7 19 45 0 38 -3 45 -19 45
-14 0 -21 8 -23 28 -3 26 -6 27 -65 30 -48 2 -63 7 -66 20 -4 16 -5 16 -6 0z
m39 -112 c0 -24 -3 -57 -6 -74 -6 -28 -11 -32 -50 -38 -34 -5 -44 -11 -44 -25
0 -14 -7 -19 -25 -19 -24 0 -25 2 -25 70 0 64 2 70 20 70 11 0 23 7 25 15 3 8
7 22 10 30 3 10 18 15 50 15 l45 0 0 -44z"/>
<path d="M1935 2372 c-122 -10 -134 -13 -137 -35 -2 -14 -11 -23 -24 -25 -17
-2 -23 -12 -29 -48 -5 -33 -11 -44 -24 -44 -21 0 -31 -51 -31 -159 0 -100 9
-141 31 -141 11 0 19 -9 21 -22 3 -20 10 -23 49 -26 37 -2 48 -7 52 -23 7 -27
57 -27 57 0 0 17 8 20 48 23 40 3 47 6 50 26 2 14 10 22 23 22 14 0 19 7 19
25 0 20 -5 25 -25 25 -18 0 -25 -5 -25 -19 0 -24 -59 -36 -135 -26 l-53 6 -4
54 c-3 29 -2 92 0 139 4 76 7 86 23 86 11 0 19 7 19 17 0 9 5 31 12 49 10 29
18 34 53 40 76 11 89 5 95 -46 5 -45 5 -45 46 -48 39 -3 42 -1 48 29 3 17 6
49 6 70 0 30 -4 39 -17 40 -10 0 -40 4 -68 7 -27 4 -63 6 -80 4z"/>
<path d="M1433 2363 c-33 -6 -31 -43 2 -43 24 0 25 -3 25 -59 0 -32 -3 -86 -6
-120 -6 -50 -10 -61 -25 -61 -17 0 -19 -9 -19 -99 l0 -100 43 -6 c23 -4 67 -5
97 -3 47 3 55 6 58 24 3 19 -3 22 -47 28 l-51 7 0 70 c0 61 3 72 19 76 24 6
31 41 31 150 0 76 2 85 20 90 32 9 25 40 -11 47 -34 6 -100 6 -136 -1z"/>
<path d="M4083 2363 c-33 -6 -31 -43 2 -43 25 0 25 -1 25 -87 0 -110 -9 -163
-26 -163 -15 0 -30 -103 -33 -231 -1 -9 -10 -19 -21 -22 -18 -5 -20 -14 -20
-101 l0 -96 76 0 75 0 -3 28 c-2 19 -9 28 -25 30 -21 3 -23 8 -23 72 0 64 2
69 23 72 14 2 23 11 25 26 5 30 52 32 52 2 0 -28 46 -28 53 0 3 11 9 20 14 19
4 -1 23 -1 41 0 27 1 32 5 32 26 0 20 5 25 25 25 23 0 31 13 26 43 0 4 10 7
24 7 20 0 25 5 25 26 0 17 6 28 20 31 14 4 21 17 26 49 8 56 1 270 -9 281 -5
4 -50 8 -100 8 -88 0 -92 -1 -95 -22 -4 -28 -32 -31 -32 -4 0 14 -10 20 -37
25 -41 6 -104 6 -140 -1z m317 -155 c0 -136 -7 -178 -31 -178 -12 0 -19 -9
-21 -27 -2 -20 -9 -29 -25 -31 -17 -3 -23 -10 -23 -28 0 -23 -3 -24 -70 -24
l-70 0 0 53 c0 28 5 59 10 67 9 13 10 13 10 0 0 -13 1 -13 10 0 7 11 5 17 -8
22 -16 6 -16 7 0 7 12 1 18 13 23 49 10 79 14 89 35 95 12 3 20 13 20 27 0 13
8 24 20 27 11 3 20 14 20 24 0 16 8 19 50 19 l50 0 0 -102z"/>
<path d="M1210 1336 c0 -35 4 -45 20 -49 18 -5 20 0 20 44 0 42 -3 49 -20 49
-17 0 -20 -7 -20 -44z"/>
<path d="M1070 1311 c0 -10 7 -21 15 -25 11 -4 15 1 15 19 0 16 -6 25 -15 25
-8 0 -15 -9 -15 -19z"/>
<path d="M2005 1220 c-8 -14 3 -30 21 -30 8 0 14 9 14 20 0 21 -24 28 -35 10z"/>
</g>
</svg>
